HIERARCHY
ROOT Hips
{
  OFFSET 23.089 22.6015 -5.18626
  CHANNELS 6 Xposition Yposition Zposition Zrotation Xrotation Yrotation
  JOINT LeftHip
  {
    OFFSET 3.43 0 0
    CHANNELS 3 Zrotation Xrotation Yrotation
    JOINT LeftKnee
    {
      OFFSET 0 -18.47 0
      CHANNELS 3 Zrotation Xrotation Yrotation
      JOINT LeftAnkle
      {
        OFFSET 0 -17.95 0
        CHANNELS 3 Zrotation Xrotation Yrotation
        End Site
        {
          OFFSET 0 -3.12 0
        }
      }
    }
  }
  JOINT RightHip
  {
    OFFSET -3.43 0 0
    CHANNELS 3 Zrotation Xrotation Yrotation
    JOINT RightKnee
    {
      OFFSET 0 -18.47 0
      CHANNELS 3 Zrotation Xrotation Yrotation
      JOINT RightAnkle
      {
        OFFSET 0 -17.95 0
        CHANNELS 3 Zrotation Xrotation Yrotation
        End Site
        {
          OFFSET 0 -3.12 0
        }
      }
    }
  }
  JOINT Chest
  {
    OFFSET 0 4.57 0
    CHANNELS 3 Zrotation Xrotation Yrotation
    JOINT Chest2
    {
      OFFSET 0 6.57 0
      CHANNELS 3 Zrotation Xrotation Yrotation
      JOINT LeftCollar
      {
        OFFSET 1.06 4.19 1.76
        CHANNELS 3 Zrotation Xrotation Yrotation
        JOINT LeftShoulder
        {
          OFFSET 5.81 0 0
          CHANNELS 3 Zrotation Xrotation Yrotation
          JOINT LeftElbow
          {
            OFFSET 0 -12.08 0
            CHANNELS 3 Zrotation Xrotation Yrotation
            JOINT LeftWrist
            {
              OFFSET 0 -9.82 0
              CHANNELS 3 Zrotation Xrotation Yrotation
              End Site
              {
                OFFSET 0 -7.37 0
              }
            }
          }
        }
      }
      JOINT RightCollar
      {
        OFFSET -1.06 4.19 1.76
        CHANNELS 3 Zrotation Xrotation Yrotation
        JOINT RightShoulder
        {
          OFFSET -6.06 0 0
          CHANNELS 3 Zrotation Xrotation Yrotation
          JOINT RightElbow
          {
            OFFSET 0 -11.08 0
            CHANNELS 3 Zrotation Xrotation Yrotation
            JOINT RightWrist
            {
              OFFSET 0 -9.82 0
              CHANNELS 3 Zrotation Xrotation Yrotation
              End Site
              {
                OFFSET 0 -7.14001 0
              }
            }
          }
        }
      }
      JOINT Neck
      {
        OFFSET 0 4.05 0
        CHANNELS 3 Zrotation Xrotation Yrotation
        JOINT Head
        {
          OFFSET 0 5.19 0
          CHANNELS 3 Zrotation Xrotation Yrotation
          End Site
          {
            OFFSET 0 4.14001 0
          }
        }
      }
    }
  }
}
MOTION
Frames:	18
Frame Time:	0.0333333
23.089 22.6015 -5.18626 -52.0239 -0.797335 -90.8346 17.0439 -35.4111 15.4675 -0.223021 87.9901 -4.39693 3.86623 1.28893 -0.0288337 -13.7477 -36.2944 -17.7073 -2.89699e-006 82.9985 12.4943 -8.99023 7.91449 0.62319 -0.938715 20.3025 -0.208281 -2.00315 40.6056 -0.0365445 -12.8719 -1.37475 -10.9811 54.9984 -14.7829 -35.7045 -1.82293e-006 -65.0583 -13.4351 35.3037 -6.55225 2.09259 7.31097 -0.902006 13.6892 -49.7465 -29.4366 41.2631 1.50381e-007 -71.3848 1.25432 -34.5767 1.6849 0.524444 -1.12614 -1.15083 -3.90423 -5.5047 -9.83545 -3.44594 
23.089 22.6015 -5.18626 -52.0202 -0.910662 -90.7783 17.0173 -35.3693 15.6289 -0.155213 88.0069 -4.50167 3.92548 1.26087 -0.0286701 -13.7998 -36.3775 -17.5326 -0.000103035 83.1795 12.4031 -8.94049 7.76989 0.608358 -0.925616 20.1998 -0.219386 -1.96684 40.4003 -0.0700459 -13.6559 -1.36755 -12.1348 55.9179 -13.4777 -35.3085 0.000251646 -65.3988 -13.1852 35.1209 -6.60682 2.09282 6.91785 -0.958556 14.1143 -49.5322 -29.0304 41.0154 0.000254668 -71.4327 0.566365 -34.5842 1.72919 0.538345 -1.42478 -1.12746 -4.94163 -6.04132 -10.9324 -4.56003 
23.089 22.6015 -5.18626 -51.9877 -1.1001 -90.7348 16.9837 -35.3924 15.7532 -0.00273149 88.0601 -4.68 4.03324 1.21241 -0.0289314 -13.8055 -36.4741 -17.3044 -0.000115101 83.3286 12.3009 -8.76947 7.62915 0.585868 -0.888467 20.1197 -0.234743 -1.87557 40.2405 -0.12311 -14.2158 -1.36194 -13.1465 56.8345 -12.4252 -35.2183 -0.000862646 -65.8259 -12.7823 35.1299 -6.58599 2.08623 6.63491 -1.00279 14.4429 -49.349 -28.7132 40.8857 -0.000177871 -71.3973 0.26862 -34.8284 1.79273 0.562383 -1.5717 -1.1145 -5.45267 -6.20789 -11.5171 -5.12961 
23.089 22.6015 -5.18626 -51.8737 -1.34342 -90.7116 17.006 -35.4602 15.9825 0.0578298 88.0826 -4.76713 4.20273 1.17069 -0.0296836 -13.7987 -36.6255 -17.0658 0.000582956 83.4106 12.2004 -8.56184 7.5236 0.563958 -0.849039 20.0332 -0.245254 -1.78157 40.0676 -0.16626 -14.5151 -1.36025 -13.9526 57.5727 -11.6932 -35.315 0.000430955 -66.1248 -12.311 35.228 -6.51143 2.06929 6.5375 -1.03969 14.8039 -49.4111 -28.3355 40.6504 -0.00357156 -71.4924 0.157982 -34.965 1.89343 0.596167 -1.65273 -1.10658 -5.73466 -6.16816 -11.8081 -5.45935 
23.089 22.6015 -5.18626 -51.6977 -1.66709 -90.6261 16.9658 -35.5722 16.2262 0.032642 88.0924 -4.79265 4.38907 1.12489 -0.0309925 -13.9093 -36.818 -16.8999 -0.000598295 83.5336 12.0868 -8.3761 7.3683 0.540302 -0.79862 19.9486 -0.266171 -1.65876 39.8988 -0.237115 -15.0424 -1.33441 -14.6453 58.4614 -11.176 -35.5875 -0.000215701 -66.3368 -11.8683 35.3523 -6.41397 2.04591 6.30266 -1.0588 14.855 -49.0236 -28.1398 40.0809 0.0123308 -71.2005 0.620996 -34.38 1.82398 0.565103 -1.79162 -1.0916 -6.21805 -6.25251 -12.0258 -5.98799 
23.089 22.6015 -5.18626 -51.5569 -2.06263 -90.3698 16.7201 -35.6747 16.3153 0.0140421 88.1312 -4.85346 4.54778 1.04889 -0.0329233 -14.2291 -36.9518 -16.8498 -0.000187518 83.786 11.9579 -8.21926 7.08857 0.509974 -0.758284 19.8886 -0.296379 -1.55491 39.7794 -0.323351 -15.7334 -1.29367 -15.2529 59.4471 -10.8697 -35.9936 0.000446383 -66.5193 -11.4283 35.4235 -6.31395 2.01833 5.8471 -1.05995 14.5366 -48.1695 -28.1964 39.4543 -0.000119175 -70.6023 1.33112 -33.519 1.73494 0.523063 -1.96936 -1.07168 -6.83769 -6.43025 -12.1842 -6.65019 
23.089 22.6015 -5.18626 -51.5568 -2.45507 -90.0403 16.3224 -35.6478 16.2598 1.38991e-006 88.1877 -4.91561 4.70539 0.941433 -0.035542 -14.6932 -36.9037 -16.8719 1.33284e-005 84.0951 11.8855 -8.06526 6.74258 0.475893 -0.81064 19.8498 -0.290347 -1.67351 39.7017 -0.287512 -15.3573 -1.3225 -15.5944 59.5104 -10.9943 -36.3065 2.92419e-007 -66.5135 -10.8431 35.2884 -6.22967 1.98321 5.789 -1.07193 14.6288 -48.5635 -27.9716 39.6911 3.27521e-008 -71.252 0.690052 -34.3915 2.43942 0.755032 -1.95951 -1.07274 -6.80328 -6.09381 -12.0861 -6.64623 
23.089 22.6015 -5.18626 -51.1722 -2.84163 -89.7639 16.3728 -36.026 16.7484 -0.00555205 88.3082 -4.9974 5.07038 0.878954 -0.038915 -15.2345 -37.303 -17.1182 0.00158224 84.595 12.0004 -7.98619 6.3319 0.442442 -0.773597 19.7275 -0.299728 -1.58568 39.4572 -0.326918 -15.5644 -1.3096 -15.9636 59.973 -10.8146 -36.4903 -0.000191014 -66.6103 -10.4949 34.9967 -6.36391 2.00814 5.69772 -1.06651 14.5085 -48.5212 -27.9296 39.4898 -0.000626252 -71.4063 0.97744 -34.2307 2.98808 0.920057 -2.03668 -1.06338 -7.07245 -6.12118 -12.2022 -6.94298 
23.089 22.6015 -5.18626 -51.1706 -3.26582 -89.7616 16.1708 -35.6476 17.4012 0.0100255 87.9628 -5.18046 5.45785 0.971709 -0.0463995 -15.5943 -37.2829 -16.7108 5.11561e-005 84.6882 11.9614 -7.77677 6.14128 0.41781 -0.885742 19.7993 -0.262724 -1.85183 39.6001 -0.194079 -16.1112 -1.26763 -16.4183 60.8286 -10.3799 -36.4749 0.000304103 -66.9196 -10.4601 35.022 -6.36132 2.00891 5.58569 -1.06942 14.465 -48.433 -27.9909 39.1693 0.000353543 -71.2522 1.12315 -34.2914 3.37061 1.04016 -2.16572 -1.04677 -7.52283 -6.37331 -12.4649 -7.42079 
23.089 22.6015 -5.18626 -50.9238 -3.68026 -89.4884 16.1681 -35.744 17.9725 -0.00588372 87.8389 -5.34723 5.91993 1.03898 -0.0536383 -15.9481 -37.4759 -16.643 -0.000643515 84.7481 11.8255 -7.52467 6.0081 0.395475 -0.860063 19.7932 -0.268816 -1.79203 39.5881 -0.21905 -16.6224 -1.22498 -16.8688 61.587 -9.90608 -36.4444 5.96719e-005 -67.1537 -10.5192 35.3205 -6.32437 2.0153 5.31781 -1.0815 14.4199 -48.0403 -27.818 38.6163 -0.000261331 -71.078 1.11266 -34.212 2.65416 0.817596 -2.28646 -1.03043 -7.94466 -6.58188 -12.7021 -7.87228 
23.089 22.6015 -5.18626 -50.443 -4.00674 -88.8593 16.263 -36.3505 18.358 0.000509378 87.9296 -5.45988 6.41777 1.10597 -0.0620651 -16.4571 -37.8592 -17.0997 0.000245512 84.8535 11.673 -7.318 5.89561 0.377319 -0.734527 19.6901 -0.317923 -1.49066 39.3827 -0.384976 -16.6638 -1.22087 -17.1001 61.7503 -9.61022 -36.3042 -0.000611082 -67.2382 -10.4883 35.6132 -6.47864 2.08292 4.98155 -1.11094 14.5057 -47.6955 -27.5387 38.2987 -0.000230674 -71.018 0.970215 -34.3038 1.898 0.585928 -2.32433 -1.02516 -8.07707 -6.59506 -12.8087 -8.02269 
23.089 22.6015 -5.18626 -50.075 -4.26311 -88.2289 16.2663 -36.8414 18.6795 0.00020961 87.9353 -5.48796 6.90854 1.24042 -0.0749145 -17.055 -38.0991 -17.6505 -0.000203316 84.9346 11.5443 -7.18467 5.80785 0.364929 -0.649956 19.6228 -0.366346 -1.28162 39.2485 -0.53007 -16.4108 -1.24282 -17.0749 61.4414 -9.37277 -35.9095 0.00136448 -67.3405 -10.5256 35.742 -6.83223 2.20525 4.7134 -1.15061 14.7342 -47.7821 -27.4067 38.4764 0.000463086 -71.1576 0.739341 -34.7725 2.14506 0.671752 -2.32408 -1.02503 -8.07612 -6.56104 -12.8335 -8.02736 
23.089 22.6015 -5.18626 -49.9103 -4.5627 -87.8178 16.5269 -36.9468 19.298 1.2605e-007 87.8751 -5.58637 7.44508 1.33587 -0.0869182 -17.3596 -38.1769 -17.8329 -7.82016e-006 85.0341 11.4086 -7.05594 5.6702 0.349867 -0.557922 19.6595 -0.40061 -1.06284 39.3217 -0.64562 -16.8828 -1.20163 -17.1099 61.6219 -8.65866 -35.3713 1.16673e-006 -67.7343 -11.1499 35.9224 -6.99171 2.26903 4.49663 -1.164 14.7285 -48.0193 -27.376 38.5243 1.08697e-007 -71.5948 0.485836 -34.9681 2.29784 0.72389 -2.4881 -1.00104 -8.65002 -6.87465 -12.9686 -8.62653 
23.089 22.6015 -5.18626 -49.6249 -4.84346 -87.4346 16.9247 -37.1176 20.0619 0.000570732 87.7995 -5.74136 7.99304 1.13702 -0.0793779 -17.1481 -38.4477 -17.3816 0.00155127 84.9375 11.0973 -6.594 5.64516 0.325429 -0.522467 19.6849 -0.409532 -0.980012 39.3724 -0.681356 -16.7076 -1.2177 -16.8901 61.5345 -8.38595 -35.1497 -0.000408425 -68.2114 -11.1206 36.2574 -7.06283 2.31504 4.30278 -1.17565 14.7209 -47.9157 -27.5415 38.4654 -0.00131138 -71.52 -0.500195 -34.8643 0.655932 0.20609 -2.42814 -1.01004 -8.44014 -6.55332 -13.0127 -8.43744 
23.089 22.6015 -5.18626 -49.4062 -5.1105 -87.098 16.9405 -37.2802 20.5265 -0.00028052 87.7797 -5.86998 8.43515 0.904978 -0.0666615 -17.3853 -38.6208 -17.2617 -0.00171295 85.0307 10.8038 -6.28877 5.48073 0.301366 -0.552007 19.7031 -0.412024 -1.05152 39.4091 -0.659771 -16.4217 -1.24229 -16.7953 61.3238 -8.39274 -35.031 0.000386017 -68.4655 -11.0726 36.5503 -7.0741 2.33882 4.14013 -1.18549 14.7151 -47.8143 -27.2832 37.9511 0.00285246 -71.8815 -0.76749 -34.5536 -0.00805857 -0.00202025 -2.39028 -1.01562 -8.30769 -6.30576 -12.9522 -8.31662 
23.089 22.6015 -5.18626 -49.2649 -5.33285 -86.7659 16.8969 -37.4319 20.7558 2.94494e-005 87.8292 -5.91019 8.74899 0.781706 -0.0598707 -17.6089 -38.7195 -17.2606 0.0001851 85.1274 10.5254 -6.07583 5.34262 0.283715 -0.524619 19.731 -0.411329 -0.98907 39.4648 -0.674043 -16.5248 -1.23343 -16.8229 61.5341 -8.27193 -35.0467 -0.0013533 -68.7871 -10.916 36.8466 -6.97067 2.32441 3.78965 -1.20067 14.649 -47.6936 -27.6252 38.3115 -0.00961291 -71.6415 -1.34651 -34.9362 -0.502513 -0.159661 -2.38782 -1.01653 -8.29881 -6.33958 -12.8298 -8.29417 
23.089 22.6015 -5.18626 -49.2431 -5.55487 -86.5266 16.9351 -37.4208 20.9754 -0.000104311 87.8578 -5.92914 8.98744 0.732616 -0.0573185 -17.5662 -38.7488 -17.0182 0.000466428 85.1573 10.2642 -5.84566 5.2713 0.269314 -0.519661 19.7876 -0.4098 -0.973629 39.5778 -0.682688 -16.805 -1.20971 -16.8398 61.9774 -7.95038 -35.0133 0.00115771 -69.1663 -10.8816 36.9889 -6.80502 2.27876 3.71371 -1.2094 14.6848 -47.8797 -27.9683 38.7496 0.00173402 -71.2856 -1.76249 -35.1124 -0.967712 -0.305385 -2.37433 -1.01793 -8.25191 -6.48416 -12.7359 -8.22 
23.089 22.6015 -5.18626 -49.3901 -5.83591 -86.4862 16.9741 -37.0989 21.283 0.000748036 87.7609 -5.99997 9.1841 0.699374 -0.0561527 -17.3389 -38.6482 -16.4223 -4.7582e-005 85.1605 10.0418 -5.57814 5.19947 0.253489 -0.631202 19.8806 -0.392327 -1.22982 39.7642 -0.593016 -16.8342 -1.20757 -16.7546 62.2859 -7.59232 -34.8207 -7.90252e-005 -69.4745 -11.0959 36.7451 -6.7654 2.24918 4.2739 -1.19956 14.931 -48.5837 -27.6234 38.3436 -0.000175542 -71.4722 -1.65475 -34.2985 -1.15996 -0.358053 -2.32436 -1.02512 -8.07715 -6.6104 -12.6979 -8.01272 
